<svg xmlns="http://www.w3.org/2000/svg" viewBox="0 0 25.12 25.12"><defs><style>.cls-1{fill:#fff;}</style></defs><title>Middel 2</title><g id="Laag_2" data-name="Laag 2"><g id="Laag_1-2" data-name="Laag 1"><path class="cls-1" d="M19.27,7.36a1.51,1.51,0,1,1,1.5-1.5,1.5,1.5,0,0,1-1.5,1.5m-6.71,1a4.19,4.19,0,1,0,4.19,4.18,4.2,4.2,0,0,0-4.19-4.18m0,10.63A6.45,6.45,0,1,1,19,12.56,6.44,6.44,0,0,1,12.56,19M5.15,2.77a4,4,0,0,0-1.44.94,4.06,4.06,0,0,0-1,1.44c-.65,1.65-.5,5.58-.5,7.41s-.15,5.76.5,7.41a4.06,4.06,0,0,0,1,1.44,4.16,4.16,0,0,0,1.44.95c1.65.65,5.58.51,7.41.51s5.76.14,7.41-.51A4.29,4.29,0,0,0,22.36,20c.65-1.65.51-5.58.51-7.41S23,6.8,22.36,5.15a4.06,4.06,0,0,0-.95-1.44A3.91,3.91,0,0,0,20,2.77c-1.65-.66-5.58-.51-7.41-.51s-5.76-.15-7.41.51M25,17.75A7.43,7.43,0,0,1,23,23a7.43,7.43,0,0,1-5.26,2c-1.74.1-3.45.08-5.19.08s-3.45,0-5.18-.08a7.45,7.45,0,0,1-5.27-2,7.47,7.47,0,0,1-2-5.26C0,16,0,14.3,0,12.56S0,9.11.08,7.38a7.5,7.5,0,0,1,2-5.27,7.5,7.5,0,0,1,5.27-2C9.11,0,10.83,0,12.56,0S16,0,17.75.08a7.47,7.47,0,0,1,5.26,2,7.45,7.45,0,0,1,2,5.27c.1,1.73.08,3.45.08,5.18s0,3.45-.08,5.19"/></g></g></svg>