<svg xmlns="http://www.w3.org/2000/svg" viewBox="0 0 25.78 20.93"><defs><style>.cls-1{fill:#fff;}</style></defs><title>Middel 3</title><g id="Laag_2" data-name="Laag 2"><g id="Laag_1-2" data-name="Laag 1"><path class="cls-1" d="M23.13,5.22c0,.23,0,.45,0,.68a14.92,14.92,0,0,1-15,15A14.89,14.89,0,0,1,0,18.56a10.58,10.58,0,0,0,1.27.07,10.59,10.59,0,0,0,6.56-2.26,5.3,5.3,0,0,1-4.94-3.66,6.63,6.63,0,0,0,1,.08,5.75,5.75,0,0,0,1.39-.18A5.28,5.28,0,0,1,1.05,7.42V7.36A5.3,5.3,0,0,0,3.43,8a5.29,5.29,0,0,1-2.35-4.4A5.19,5.19,0,0,1,1.8,1,15,15,0,0,0,12.69,6.49a6.06,6.06,0,0,1-.13-1.21A5.28,5.28,0,0,1,21.7,1.67,10.36,10.36,0,0,0,25.06.39,5.27,5.27,0,0,1,22.73,3.3a10.41,10.41,0,0,0,3.05-.81,11.45,11.45,0,0,1-2.65,2.73"/></g></g></svg>